<svg xmlns="http://www.w3.org/2000/svg" width="600" height="400" viewBox="0 0 600 400">

  <!-- HILL A: main feature, summit near (168, 198) — 12 rings -->

  <path fill="none" stroke="rgba(90,156,90,0.026)" stroke-width="1.1"
    d="M 168,86 C 248,80 304,134 302,198 C 300,262 246,313 168,311 C 90,309 34,256 34,198 C 34,144 86,92 168,86 Z"/>
  <path fill="none" stroke="rgba(90,156,90,0.030)" stroke-width="1.0"
    d="M 168,96 C 242,90 292,141 290,198 C 288,255 238,303 168,301 C 99,299 48,248 47,198 C 46,152 95,101 168,96 Z"/>
  <path fill="none" stroke="rgba(90,156,90,0.034)" stroke-width="1.0"
    d="M 168,106 C 235,100 280,148 279,198 C 278,248 231,293 168,291 C 107,289 60,241 59,198 C 58,157 104,111 168,106 Z"/>
  <path fill="none" stroke="rgba(90,156,90,0.039)" stroke-width="1.0"
    d="M 168,116 C 229,111 269,155 268,198 C 267,241 223,283 168,282 C 115,281 74,237 73,198 C 72,162 110,120 168,116 Z"/>
  <path fill="none" stroke="rgba(90,156,90,0.044)" stroke-width="0.9"
    d="M 168,125 C 222,121 259,161 258,198 C 257,235 215,273 168,272 C 122,271 87,231 86,198 C 85,168 118,129 168,125 Z"/>
  <path fill="none" stroke="rgba(90,156,90,0.050)" stroke-width="0.9"
    d="M 168,134 C 216,130 249,167 248,198 C 247,230 209,264 168,263 C 128,262 98,228 98,198 C 98,170 124,137 168,134 Z"/>
  <path fill="none" stroke="rgba(90,156,90,0.056)" stroke-width="0.9"
    d="M 168,143 C 210,140 240,172 239,198 C 238,224 203,254 168,253 C 135,252 109,225 109,198 C 109,173 131,146 168,143 Z"/>
  <path fill="none" stroke="rgba(90,156,90,0.062)" stroke-width="0.8"
    d="M 168,152 C 204,149 231,176 230,198 C 229,220 196,245 168,244 C 142,243 119,221 119,198 C 119,176 137,154 168,152 Z"/>
  <path fill="none" stroke="rgba(90,156,90,0.068)" stroke-width="0.8"
    d="M 168,161 C 198,159 222,180 221,198 C 220,216 197,236 168,235 C 142,234 122,217 122,198 C 122,179 142,162 168,161 Z"/>
  <path fill="none" stroke="rgba(90,156,90,0.074)" stroke-width="0.8"
    d="M 168,169 C 193,168 213,184 213,198 C 213,212 194,227 168,226 C 145,225 130,212 130,198 C 130,184 148,170 168,169 Z"/>
  <path fill="none" stroke="rgba(90,156,90,0.079)" stroke-width="0.7"
    d="M 168,177 C 187,176 203,188 203,198 C 203,208 188,219 168,218 C 152,217 141,207 141,198 C 141,188 153,178 168,177 Z"/>
  <path fill="none" stroke="rgba(90,156,90,0.083)" stroke-width="0.7"
    d="M 168,184 C 182,184 193,191 193,198 C 193,205 182,212 168,212 C 157,212 148,205 148,198 C 148,191 158,184 168,184 Z"/>

  <!-- HILL B: elongated ridge, summit near (490, 95) — 8 rings -->

  <path fill="none" stroke="rgba(90,156,90,0.024)" stroke-width="1.1"
    d="M 490,23 C 554,22 600,56 600,95 C 600,134 552,167 490,167 C 428,167 380,134 380,95 C 380,56 427,24 490,23 Z"/>
  <path fill="none" stroke="rgba(90,156,90,0.030)" stroke-width="1.0"
    d="M 490,31 C 549,30 591,62 591,95 C 591,128 548,160 490,159 C 433,158 391,126 391,95 C 391,64 433,32 490,31 Z"/>
  <path fill="none" stroke="rgba(90,156,90,0.037)" stroke-width="1.0"
    d="M 490,39 C 543,38 581,67 581,95 C 581,123 542,153 490,152 C 440,151 401,121 401,95 C 401,69 439,40 490,39 Z"/>
  <path fill="none" stroke="rgba(90,156,90,0.044)" stroke-width="0.9"
    d="M 490,46 C 536,46 571,72 571,95 C 571,118 536,145 490,144 C 446,143 411,116 411,95 C 411,74 446,47 490,46 Z"/>
  <path fill="none" stroke="rgba(90,156,90,0.052)" stroke-width="0.9"
    d="M 490,54 C 530,53 562,78 562,95 C 562,112 530,138 490,137 C 452,136 420,112 420,95 C 420,78 452,55 490,54 Z"/>
  <path fill="none" stroke="rgba(90,156,90,0.060)" stroke-width="0.8"
    d="M 490,61 C 524,60 551,81 552,95 C 553,109 524,131 490,130 C 458,129 430,109 430,95 C 430,81 458,62 490,61 Z"/>
  <path fill="none" stroke="rgba(90,156,90,0.068)" stroke-width="0.8"
    d="M 490,68 C 518,67 541,84 542,95 C 543,106 519,124 490,123 C 463,122 440,106 440,95 C 440,84 465,69 490,68 Z"/>
  <path fill="none" stroke="rgba(90,156,90,0.075)" stroke-width="0.7"
    d="M 490,74 C 513,74 533,85 534,95 C 535,105 513,118 490,117 C 469,116 451,105 451,95 C 451,85 469,74 490,74 Z"/>

  <!-- TOP-LEFT CORNER PARTIAL (summit off-tile ~-40,-30) — 5 open arcs -->

  <path fill="none" stroke="rgba(90,156,90,0.026)" stroke-width="1.0"
    d="M 0,98 C 32,64 74,32 118,0"/>
  <path fill="none" stroke="rgba(90,156,90,0.032)" stroke-width="0.9"
    d="M 0,82 C 27,53 65,26 98,0"/>
  <path fill="none" stroke="rgba(90,156,90,0.038)" stroke-width="0.9"
    d="M 0,68 C 22,44 52,21 82,0"/>
  <path fill="none" stroke="rgba(90,156,90,0.044)" stroke-width="0.8"
    d="M 0,55 C 16,34 40,15 66,0"/>
  <path fill="none" stroke="rgba(90,156,90,0.050)" stroke-width="0.8"
    d="M 0,42 C 11,26 29,11 52,0"/>

  <!-- BOTTOM-RIGHT CORNER PARTIAL (summit off-tile ~640,420) — 4 open arcs -->

  <path fill="none" stroke="rgba(90,156,90,0.026)" stroke-width="1.0"
    d="M 484,400 C 522,375 562,354 600,336"/>
  <path fill="none" stroke="rgba(90,156,90,0.033)" stroke-width="0.9"
    d="M 504,400 C 538,377 574,358 600,346"/>
  <path fill="none" stroke="rgba(90,156,90,0.040)" stroke-width="0.9"
    d="M 521,400 C 551,380 581,362 600,354"/>
  <path fill="none" stroke="rgba(90,156,90,0.047)" stroke-width="0.8"
    d="M 536,400 C 561,383 585,367 600,361"/>

  <!-- LONG RIDGE LINES — imply landscape beyond tile edges -->

  <path fill="none" stroke="rgba(90,156,90,0.021)" stroke-width="1.1"
    d="M 0,258 C 68,250 138,238 205,228 C 272,218 338,211 402,206 C 462,201 528,196 600,194"/>
  <path fill="none" stroke="rgba(90,156,90,0.018)" stroke-width="1.0"
    d="M 0,140 C 80,136 158,128 232,120 C 302,112 370,108 442,107 C 502,107 554,112 600,121"/>

</svg>
